<svg width="101" height="101" viewBox="0 0 101 101" fill="none" xmlns="http://www.w3.org/2000/svg">
<path d="M93.1409 65.3953C92.9517 65.9174 92.6554 66.3525 92.252 66.7005C91.8593 67.0524 91.4088 67.2809 90.9005 67.386C90.3991 67.5057 89.9033 67.4767 89.4132 67.299C88.7632 67.0635 88.2777 66.7067 87.9567 66.2287C87.6357 65.7507 87.5005 65.1592 87.5511 64.4543L87.4711 64.4253C87.1474 65.0192 86.6778 65.4337 86.0622 65.6686C85.4428 65.9143 84.7654 65.9039 84.0302 65.6374C83.4442 65.425 82.9742 65.0919 82.6203 64.6382C82.2732 64.199 82.0568 63.6986 81.9709 63.1371C81.8958 62.5795 81.9528 62.0396 82.142 61.5175L83.9377 56.5629L94.9019 60.5365L93.1409 65.3953ZM92.9117 61.5873L89.6672 60.4114L88.5898 63.3842C88.4354 63.8104 88.4528 64.2447 88.6421 64.687C88.8313 65.1293 89.1551 65.4334 89.6132 65.5995C90.0608 65.7617 90.5023 65.7409 90.9378 65.5371C91.3733 65.3333 91.6721 65.0076 91.8343 64.5601L92.9117 61.5873ZM88.2448 59.8959L84.7925 58.6447L83.6572 61.7773C83.4834 62.2568 83.5018 62.7215 83.7124 63.1716C83.9298 63.6361 84.2782 63.9553 84.7577 64.129C85.2372 64.3028 85.7039 64.2791 86.1578 64.0578C86.6184 63.8511 86.9357 63.508 87.1095 63.0285L88.2448 59.8959Z" fill="white"/>
<path d="M76.9716 76.6793C76.3886 76.1754 75.9889 75.5979 75.7728 74.9467C75.5492 74.3041 75.5243 73.631 75.698 72.9273C75.873 72.2396 76.2346 71.5785 76.783 70.944L76.9275 70.7767C77.4759 70.1422 78.0776 69.6886 78.7327 69.4159C79.3804 69.1518 80.0421 69.0795 80.7177 69.1991C81.3933 69.3186 82.0269 69.634 82.6186 70.1454L88.6252 75.3366L87.5358 76.597L81.5549 71.4281C81.0062 70.9538 80.4015 70.7608 79.741 70.8491C79.0731 70.9459 78.4835 71.2902 77.9722 71.8818C77.446 72.4906 77.1982 73.1153 77.2288 73.7559C77.252 74.4051 77.538 74.9668 78.0867 75.4411L84.0676 80.61L82.9783 81.8705L76.9716 76.6793Z" fill="white"/>
<path d="M69.5053 91.5478L69.5749 83.3014L67.3699 79.3729L68.8227 78.5575L71.0277 82.4859L78.1183 86.7133L76.458 87.6453L71.0907 84.439L71.0314 84.4723L71.0026 90.7074L69.5053 91.5478Z" fill="white"/>
<path d="M46.46 95.6576L46.6851 83.9978L48.0958 84.025L53.6251 92.6673L53.6764 92.6513L53.8407 84.1359L55.3535 84.1651L55.1284 95.8249L53.6667 95.7967L48.1865 87.2574L48.1351 87.2734L47.9727 95.6868L46.46 95.6576Z" fill="white"/>
<path d="M33.9976 92.9989C33.1076 92.6303 32.4077 92.1135 31.8981 91.4485C31.3884 90.7836 31.1021 90.0087 31.0392 89.124C30.9615 88.2453 31.1287 87.3087 31.5407 86.314L32.1261 84.9004C32.5381 83.9057 33.0844 83.1199 33.7649 82.5431C34.4306 81.9724 35.1788 81.6321 36.0094 81.5223C36.84 81.4124 37.7003 81.5418 38.5903 81.9104C39.4803 82.279 40.1801 82.7958 40.6898 83.4608C41.1995 84.1258 41.4931 84.8976 41.5709 85.7762C41.6338 86.6609 41.4592 87.6006 41.0472 88.5954L40.4617 90.0089C40.0497 91.0036 39.5109 91.7863 38.8452 92.357C38.1647 92.9339 37.4091 93.2772 36.5785 93.3871C35.7479 93.4969 34.8876 93.3676 33.9976 92.9989ZM34.5766 91.6011C35.498 91.9827 36.3367 91.9866 37.0926 91.6128C37.8485 91.2389 38.4585 90.4918 38.9225 89.3714L39.508 87.9579C39.9721 86.8375 40.0794 85.8822 39.8302 85.092C39.5704 84.2975 38.9642 83.7029 38.0113 83.3082C37.0899 82.9266 36.2534 82.9175 35.5018 83.2809C34.7459 83.6547 34.1337 84.4071 33.6653 85.5379L33.0799 86.9515C32.6158 88.0718 32.5137 89.0293 32.7734 89.8238C33.0227 90.614 33.6237 91.2064 34.5766 91.6011Z" fill="white"/>
<path d="M12.7501 76.9562L23.5975 71.4778L24.7596 72.7185L20.2325 80.2198L20.3139 80.3066L28.1531 76.3415L29.3152 77.5822L23.0815 87.9863L21.8613 86.6836L26.5908 78.8763L26.5211 78.8018L18.4097 82.9986L17.3057 81.8199L22.0352 74.0125L21.9655 73.9381L13.8541 78.1349L12.7501 76.9562Z" fill="white"/>
<path d="M8.5987 58.9529C8.51888 58.5066 8.56219 58.0729 8.72862 57.6517C8.8819 57.2213 9.13283 56.854 9.48139 56.5499C9.82995 56.2458 10.2329 56.0528 10.6903 55.971C11.1701 55.8852 11.6261 55.9245 12.0585 56.0889C12.4909 56.2534 12.8535 56.5109 13.1465 56.8614C13.4375 57.2008 13.6229 57.5937 13.7027 58.0399C13.7825 58.4862 13.7402 58.9255 13.5758 59.3578C13.4093 59.7791 13.1508 60.1362 12.8003 60.4291C12.4497 60.7221 12.0457 60.9095 11.5883 60.9913C11.1198 61.0751 10.6759 61.0394 10.2567 60.8841C9.82428 60.7197 9.46261 60.4678 9.17163 60.1283C8.8695 59.7909 8.67853 59.3991 8.5987 58.9529Z" fill="white"/>
<path d="M6.97183 35.0793C7.15712 34.5558 7.45015 34.1185 7.85092 33.7674C8.24101 33.4126 8.68976 33.1807 9.19719 33.0718C9.69771 32.9484 10.1937 32.9736 10.6852 33.1476C11.3369 33.3782 11.825 33.7314 12.1496 34.2069C12.4742 34.6825 12.6139 35.2729 12.5686 35.9782L12.6488 36.0066C12.968 35.4103 13.4345 34.9923 14.0483 34.7527C14.6659 34.5024 15.3433 34.5077 16.0805 34.7687C16.6681 34.9766 17.1405 35.3062 17.4978 35.7572C17.8482 36.1938 18.0685 36.6926 18.1585 37.2534C18.2378 37.8105 18.1849 38.3508 17.9996 38.8743L16.2412 43.8423L5.24748 39.9511L6.97183 35.0793ZM7.22965 38.8854L10.4829 40.0369L11.5379 37.0561C11.6892 36.6287 11.6685 36.1946 11.4759 35.7538C11.2833 35.3129 10.9573 35.0112 10.4979 34.8486C10.0492 34.6897 9.60782 34.7139 9.17386 34.9209C8.7399 35.128 8.4435 35.4559 8.28468 35.9046L7.22965 38.8854ZM11.9092 40.5417L15.3708 41.7669L16.4825 38.6259C16.6527 38.1451 16.6308 37.6805 16.4168 37.2321C16.1959 36.7692 15.8451 36.4526 15.3643 36.2825C14.8835 36.1123 14.4171 36.1396 13.9648 36.3642C13.5057 36.5744 13.1911 36.9199 13.0209 37.4007L11.9092 40.5417Z" fill="white"/>
<path d="M22.9423 23.7733C23.5308 24.2708 23.9367 24.844 24.16 25.4928C24.3905 26.1329 24.4228 26.8057 24.2568 27.5112C24.0894 28.2008 23.735 28.8658 23.1935 29.5063L23.0508 29.675C22.5094 30.3155 21.9127 30.7757 21.2606 31.0555C20.6158 31.3267 19.955 31.4062 19.2781 31.294C18.6012 31.1819 17.9642 30.8734 17.367 30.3685L11.3041 25.2432L12.3796 23.9709L18.4166 29.0742C18.9705 29.5425 19.5772 29.7289 20.2367 29.6334C20.9035 29.5293 21.4893 29.1786 21.9942 28.5814C22.5136 27.9669 22.7546 27.3396 22.717 26.6993C22.6868 26.0505 22.3947 25.4919 21.8408 25.0237L15.8038 19.9203L16.8794 18.648L22.9423 23.7733Z" fill="white"/>
<path d="M30.3536 8.75453L30.3449 17.0012L32.5788 20.9133L31.1321 21.7395L28.8981 17.8274L21.7765 13.6524L23.43 12.7082L28.8207 15.8748L28.8797 15.8411L28.8626 9.60596L30.3536 8.75453Z" fill="white"/>
<path d="M53.0767 4.41688L52.9866 16.0785L51.5757 16.0676L45.9467 7.48993L45.8956 7.50653L45.8298 16.0233L44.3169 16.0116L44.4069 4.34994L45.8689 4.36123L51.4476 12.8366L51.4987 12.8199L51.5637 4.4052L53.0767 4.41688Z" fill="white"/>
<path d="M65.7696 6.93556C66.6623 7.29753 67.366 7.80908 67.8806 8.47022C68.3952 9.13136 68.6873 9.90406 68.7568 10.7883C68.8411 11.6663 68.681 12.6042 68.2764 13.602L67.7015 15.0199C67.297 16.0176 66.7566 16.8075 66.0804 17.3894C65.419 17.965 64.6734 18.3109 63.8437 18.427C63.0139 18.543 62.1527 18.4201 61.2599 18.0581C60.3672 17.6962 59.6635 17.1846 59.1489 16.5235C58.6343 15.8623 58.3348 15.0928 58.2505 14.2148C58.181 13.3305 58.3485 12.3895 58.7531 11.3917L59.328 9.97383C59.7325 8.97606 60.2655 8.18934 60.9269 7.61368C61.6031 7.03178 62.3561 6.6828 63.1858 6.56673C64.0156 6.45066 64.8768 6.5736 65.7696 6.93556ZM65.2011 8.3377C64.2768 7.96296 63.4381 7.96534 62.685 8.34485C61.9319 8.72435 61.3275 9.476 60.8719 10.5998L60.297 12.0177C59.8414 13.1415 59.7411 14.0976 59.9963 14.8859C60.2619 15.6784 60.8727 16.2685 61.8284 16.656C62.7527 17.0307 63.5892 17.0336 64.3381 16.6646C65.0912 16.2851 65.6977 15.5282 66.1576 14.3939L66.7325 12.976C67.1881 11.8522 67.2831 10.894 67.0175 10.1014C66.7623 9.31312 66.1568 8.72521 65.2011 8.3377Z" fill="white"/>
<path d="M87.2501 22.8434L76.4428 28.4005L75.2717 27.1682L79.7442 19.6343L79.6622 19.548L71.852 23.57L70.6809 22.3377L76.8388 11.8886L78.0685 13.1825L73.3959 21.024L73.4661 21.0979L81.5468 16.8423L82.6593 18.013L77.9867 25.8544L78.0569 25.9284L86.1376 21.6728L87.2501 22.8434Z" fill="white"/>
<path d="M91.5676 40.8208C91.6509 41.2664 91.6109 41.7005 91.4477 42.1229C91.2977 42.5545 91.0496 42.9237 90.7034 43.2304C90.3571 43.5372 89.9556 43.7333 89.4989 43.8186C89.0198 43.9081 88.5635 43.8722 88.1299 43.7111C87.6962 43.55 87.3316 43.2953 87.036 42.947C86.7424 42.6098 86.554 42.2184 86.4708 41.7728C86.3875 41.3271 86.4265 40.8875 86.5876 40.4539C86.7508 40.0314 87.0066 39.6724 87.3549 39.3767C87.7032 39.0811 88.1057 38.8906 88.5625 38.8053C89.0304 38.7179 89.4746 38.7502 89.895 38.9023C90.3286 39.0634 90.6922 39.3126 90.9857 39.6497C91.2904 39.9848 91.4844 40.3752 91.5676 40.8208Z" fill="white"/>
</svg>
