<svg width="106" height="104" viewBox="0 0 106 104" fill="none" xmlns="http://www.w3.org/2000/svg">
<path d="M98.8579 54.7451L97.0453 54.2168L93.249 67.2429L95.0616 67.7712L98.8579 54.7451ZM89.7123 51.5297L87.8689 50.9925L83.7906 64.9863L85.6339 65.5236L89.7123 51.5297ZM99.9478 61.0124L96.2459 59.9335L95.6818 61.869L99.3838 62.9479L99.9478 61.0124ZM93.8977 63.0156C91.7273 61.9997 88.9666 60.3785 87.303 59.1104L86.3798 60.7912C87.982 62.0415 90.5513 63.6902 92.9112 65.0279L93.8977 63.0156ZM95.4233 55.894C93.3567 56.0083 90.7071 55.8361 89.0782 55.478L89.0345 57.5152C90.7075 57.8361 93.2541 57.9616 95.3737 57.7794L95.4233 55.894Z" fill="black"/>
<path d="M84.2837 85.5601L78.4079 78.7111L77.0236 79.8988L82.8993 86.7477L84.2837 85.5601ZM82.6399 88.8044L74.5556 79.381C74.3784 79.1746 74.3992 79.0513 74.6057 78.8742C74.8242 78.6867 75.4939 78.0911 76.2051 77.5442C75.6462 77.2858 74.8772 76.8072 74.4727 76.4585C73.4526 77.3337 72.7674 77.9847 72.5248 78.6356C72.2612 79.2623 72.4472 79.7984 73.1348 80.5999L81.2191 90.0233L82.6399 88.8044ZM90.9608 79.7052L89.8461 78.4059L83.5801 83.7816L84.6948 85.0809L90.9608 79.7052ZM89.6556 83.1229L87.8637 81.0342L86.4429 82.2531L88.2348 84.3418L89.6556 83.1229ZM88.3111 76.3709C86.9957 76.5085 85.1961 76.5978 84.2328 76.4334L84.284 78.2868C85.2871 78.3749 87.0693 78.2162 88.3205 78.0282L88.3111 76.3709ZM81.339 74.6576C79.9437 74.653 78.0555 74.5653 77.0524 74.3297L76.7756 76.317C77.8273 76.5109 79.6999 76.5066 81.0414 76.473L81.339 74.6576ZM87.999 81.0446C87.7452 79.9132 87.5865 78.2784 87.6068 77.1226L86.0798 77.5051C85.9831 78.621 86.0324 80.202 86.1059 81.6146L87.999 81.0446ZM84.9222 81.3652C84.4075 78.8977 84.84 75.9125 85.8351 73.5831C85.2451 73.5834 84.4814 73.4796 83.9937 73.3288C83.03 75.9897 82.6912 79.0841 83.22 81.9612L84.9222 81.3652ZM82.0839 79.4575C81.5759 76.6047 82.3034 73.3243 83.6784 70.6269C83.0554 70.6132 82.2379 70.4713 81.7189 70.2841C80.3892 73.2801 79.7971 76.7182 80.3418 79.9824L82.0839 79.4575Z" fill="black"/>
<path d="M61.5236 96.8014L57.9721 97.2831L57.7764 95.8404L61.3278 95.3586L61.5236 96.8014ZM63.5036 98.0667L62.8971 93.5956L55.7149 94.57L56.3214 99.041L63.5036 98.0667ZM63.2948 92.7182L62.0644 83.6493L60.1936 83.9031L61.211 91.4024L55.5984 92.1638L55.8113 93.7334L63.2948 92.7182ZM62.2745 90.4346L62.0659 88.8967L55.6447 89.7678L55.8533 91.3057L62.2745 90.4346ZM61.9519 88.0564L61.7432 86.5185L55.3221 87.3896L55.5307 88.9275L61.9519 88.0564ZM57.0638 93.5635L56.1002 86.4605C56.0744 86.2703 56.1451 86.1961 56.3512 86.1682C56.5552 86.1243 57.3003 86.0232 57.923 85.9711C57.6206 85.5277 57.2817 84.8148 57.1473 84.3002C56.0375 84.4507 55.231 84.5763 54.6831 84.9413C54.1511 85.3041 54.0412 85.8034 54.1638 86.7071L55.1295 93.8259L57.0638 93.5635ZM69.1727 89.628L68.4338 87.8713C66.9338 88.4785 65.0071 89.2727 63.2209 90.0317L63.6954 91.7435C65.6538 90.945 67.7549 90.1271 69.1727 89.628ZM69.6664 94.6956L69.4255 92.9199L63.7495 93.6899L63.9904 95.4656L69.6664 94.6956ZM68.1091 97.9747L66.3669 85.1323C66.3368 84.9104 66.4074 84.8362 66.6272 84.7902C66.8334 84.7623 67.4993 84.6719 68.1197 84.6039C67.8333 84.1584 67.4922 83.4296 67.3642 82.9626C66.2364 83.0994 65.484 83.2661 64.9836 83.6246C64.4833 83.9831 64.3893 84.4803 64.5119 85.384L66.2541 98.2264L68.1091 97.9747Z" fill="black"/>
<path d="M37.8797 90.9228L33.4313 88.8022L33.8237 87.9789L38.2721 90.0995L37.8797 90.9228ZM36.9708 92.8292L32.5224 90.7086L32.908 89.8998L37.3564 92.0204L36.9708 92.8292ZM37.9014 94.744L40.3456 89.6168L32.8498 86.0435L30.4056 91.1707L37.9014 94.744ZM40.042 88.6922L42.6789 83.1606L41.1191 82.417L39.088 86.6776L35.9106 85.1629L37.9417 80.9023L36.2952 80.1174L33.6582 85.649L40.042 88.6922ZM31.3253 94.4097C31.8449 93.8775 32.6768 93.2106 33.2989 92.7981L32.0818 91.633C31.4728 91.9808 30.6527 92.5115 29.8476 93.0849L31.3253 94.4097ZM36.6626 96.2273C36.5756 95.4059 36.5987 94.3535 36.7015 93.7289L34.8889 93.627C34.7862 94.2516 34.8414 95.2882 34.9567 96.0876L36.6626 96.2273ZM40.0395 86.2804L40.6179 85.0672L36.1262 82.926L35.5478 84.1392L40.0395 86.2804ZM40.9553 84.3595L41.5474 83.1174L37.0556 80.9762L36.4635 82.2183L40.9553 84.3595ZM35.2951 92.7749L37.1128 88.962L35.5674 88.2253L33.7498 92.0382L35.2951 92.7749ZM45.8745 89.062C46.6377 88.1674 47.6967 87.396 48.6847 87.0339C48.42 86.6596 47.9842 85.9378 47.791 85.5621C46.7404 86.0184 45.4839 86.9438 44.5301 87.978L45.8745 89.062ZM44.4181 87.7296C44.3208 86.7438 44.2897 85.4705 44.3829 84.7173L42.7512 84.7194C42.6793 85.465 42.7455 86.7019 42.8855 87.6725L44.4181 87.7296ZM42.492 94.1496L41.0621 93.468L41.7025 92.1248L43.1323 92.8064L42.492 94.1496ZM43.7382 91.5354L42.3083 90.8538L42.9624 89.4817L44.3923 90.1634L43.7382 91.5354ZM41.2458 96.7637L39.816 96.0821L40.4494 94.7534L41.8792 95.435L41.2458 96.7637ZM42.058 98.8525L46.5195 89.4936L42.1 87.3867L37.6385 96.7457L42.058 98.8525Z" fill="black"/>
<path d="M18.5808 72.8762C17.8433 73.1914 17.2048 73.2547 16.6654 73.0661C16.1212 72.8795 15.7069 72.4534 15.4224 71.7876C15.1419 71.1315 15.1213 70.5399 15.3606 70.0129C15.5998 69.4859 16.0858 69.0658 16.8185 68.7526C17.5465 68.4415 18.187 68.383 18.7401 68.5771C19.2911 68.7664 19.7058 69.1867 19.9842 69.8381C20.2666 70.499 20.2859 71.094 20.0419 71.6231C19.7958 72.1474 19.3088 72.5651 18.5808 72.8762Z" fill="black"/>
<path d="M7.26604 47.439L9.05513 48.0421L13.3891 35.1849L11.6 34.5818L7.26604 47.439ZM16.2703 51.0314L18.0897 51.6447L22.7457 37.8323L20.9262 37.219L16.2703 51.0314ZM6.43731 41.1318L10.0913 42.3636L10.7353 40.4532L7.08128 39.2215L6.43731 41.1318ZM12.5654 39.3816C14.6918 40.4868 17.3828 42.2212 18.9923 43.5573L19.9845 41.9163C18.4356 40.6006 15.937 38.8466 13.6346 37.412L12.5654 39.3816ZM10.7454 46.4337C12.8149 46.4053 15.4551 46.6874 17.0677 47.1128L17.196 45.0793C15.5378 44.6892 12.9986 44.458 10.8732 44.552L10.7454 46.4337Z" fill="black"/>
<path d="M23.0664 17.228L28.6633 24.3067L30.0941 23.1754L24.4972 16.0967L23.0664 17.228ZM24.8388 14.0521L32.5394 23.7916C32.7081 24.005 32.6824 24.1273 32.4691 24.296C32.2431 24.4746 31.5502 25.0429 30.8176 25.5609C31.3657 25.8414 32.115 26.3505 32.5052 26.715C33.5595 25.8815 34.2702 25.2583 34.5387 24.6177C34.8271 24.0021 34.6628 23.4589 34.0079 22.6306L26.3072 12.8911L24.8388 14.0521ZM16.1602 22.8108L17.2221 24.1538L23.6983 19.0333L22.6365 17.6903L16.1602 22.8108ZM17.6013 19.4482L19.3082 21.6069L20.7766 20.4459L19.0698 18.2871L17.6013 19.4482ZM18.6744 26.2486C19.9942 26.1637 21.796 26.1465 22.7519 26.3494L22.775 24.4954C21.7762 24.3672 19.989 24.4545 18.7313 24.5922L18.6744 26.2486ZM25.5722 28.2396C26.9662 28.3001 28.8494 28.4633 29.8424 28.7388L30.1985 26.7643C29.1553 26.5284 27.2841 26.4578 25.9424 26.4376L25.5722 28.2396ZM19.1733 21.5911C19.3817 22.7318 19.4748 24.3716 19.4082 25.5256L20.9493 25.2046C21.0906 24.0934 21.1046 22.5118 21.0877 21.0973L19.1733 21.5911ZM22.2605 21.3939C22.6761 23.8801 22.1243 26.8456 21.0368 29.1333C21.6263 29.1566 22.3852 29.2909 22.8665 29.4611C23.936 26.8409 24.3984 23.7625 23.9852 20.8665L22.2605 21.3939ZM25.0201 23.4137C25.4135 26.2846 24.5553 29.5332 23.0734 32.1735C23.6954 32.212 24.5065 32.3866 25.0176 32.5944C26.4662 29.6541 27.1954 26.2424 26.7819 22.959L25.0201 23.4137Z" fill="black"/>
<path d="M46.2374 6.89322L49.8061 6.56199L49.9406 8.01176L46.372 8.34298L46.2374 6.89322ZM44.3126 5.54533L44.7296 10.038L51.9466 9.36818L51.5296 4.87549L44.3126 5.54533ZM44.2952 10.8978L45.141 20.0107L47.0209 19.8362L46.3215 12.3006L51.9613 11.7771L51.8149 10.1999L44.2952 10.8978ZM45.218 13.2225L45.3614 14.7679L51.8137 14.169L51.6703 12.6236L45.218 13.2225ZM45.4398 15.6122L45.5832 17.1576L52.0355 16.5587L51.8921 15.0134L45.4398 15.6122ZM50.5563 10.3167L51.2187 17.4541C51.2365 17.6452 51.1627 17.7163 50.9556 17.7356C50.75 17.7707 50.0012 17.8402 49.3769 17.866C49.6603 18.3218 49.9687 19.0484 50.0813 19.5682C51.1965 19.4647 52.0075 19.3734 52.5704 19.0319C53.1173 18.6919 53.2482 18.1977 53.1639 17.2896L52.4999 10.1363L50.5563 10.3167ZM38.2919 13.7368L38.9558 15.5231C40.4801 14.9799 42.4387 14.2678 44.2554 13.585L43.8538 11.8547C41.8633 12.5698 39.7295 13.2981 38.2919 13.7368ZM38.0128 8.65284L38.1785 10.4372L43.8819 9.9078L43.7163 8.12347L38.0128 8.65284ZM39.7074 5.44249L40.9051 18.347C40.9258 18.5701 40.8521 18.6412 40.6305 18.6778C40.4234 18.697 39.7543 18.7592 39.1315 18.8009C39.3989 19.2581 39.7088 20.0007 39.8169 20.4727C40.9495 20.3836 41.7083 20.2489 42.2234 19.9119C42.7385 19.5749 42.8534 19.0821 42.7691 18.174L41.5714 5.26949L39.7074 5.44249Z" fill="black"/>
<path d="M69.6051 13.6801L73.9634 15.9803L73.5377 16.7869L69.1794 14.4867L69.6051 13.6801ZM70.5909 11.8123L74.9492 14.1125L74.5309 14.9049L70.1727 12.6047L70.5909 11.8123ZM69.7391 9.86115L67.088 14.8845L74.4319 18.7604L77.0831 13.7371L69.7391 9.86115ZM67.3537 15.8207L64.4934 21.2402L66.0216 22.0468L68.2247 17.8725L71.3377 19.5155L69.1346 23.6898L70.7478 24.5411L73.608 19.1216L67.3537 15.8207ZM76.2962 10.4633C75.7553 10.9739 74.8969 11.6063 74.2585 11.9931L75.4271 13.2069C76.0497 12.8842 76.8909 12.3873 77.7186 11.8473L76.2962 10.4633ZM71.0374 8.42962C71.0909 9.25386 71.0248 10.3045 70.8967 10.9244L72.7036 11.1001C72.8317 10.4802 72.8188 9.44213 72.7362 8.63872L71.0374 8.42962ZM67.2578 18.2306L66.6304 19.4192L71.0312 21.7418L71.6585 20.5532L67.2578 18.2306ZM66.2645 20.1125L65.6223 21.3295L70.023 23.652L70.6652 22.4351L66.2645 20.1125ZM72.263 11.9349L70.2914 15.6706L71.8055 16.4697L73.777 12.734L72.263 11.9349ZM61.5411 15.2135C60.742 16.0762 59.6524 16.8038 58.6505 17.1253C58.8997 17.5101 59.3058 18.2491 59.4834 18.6323C60.5518 18.2192 61.8449 17.3458 62.8402 16.3514L61.5411 15.2135ZM62.942 16.6041C62.999 17.593 62.9781 18.8666 62.8543 19.6153L64.4847 19.6798C64.5869 18.9377 64.5712 17.6992 64.471 16.7236L62.942 16.6041ZM65.1281 10.268L66.529 11.0073L65.8345 12.3233L64.4336 11.5839L65.1281 10.268ZM63.7764 12.8292L65.1773 13.5685L64.4678 14.9128L63.067 14.1734L63.7764 12.8292ZM66.4799 7.70679L67.8807 8.44613L67.1937 9.74795L65.7928 9.00861L66.4799 7.70679ZM65.7535 5.58663L60.9142 14.7559L65.2441 17.0412L70.0834 7.87187L65.7535 5.58663Z" fill="black"/>
<path d="M88.2148 32.4664C88.9647 32.1818 89.6052 32.1449 90.1364 32.3555C90.6725 32.5643 91.0689 33.0072 91.3258 33.684C91.579 34.3511 91.5752 34.9431 91.3145 35.4598C91.0538 35.9766 90.551 36.3763 89.8059 36.659C89.0658 36.9399 88.4234 36.972 87.8788 36.7553C87.336 36.5435 86.939 36.1065 86.6876 35.4442C86.4326 34.7723 86.4379 34.177 86.7035 33.6584C86.9709 33.1446 87.4747 32.7473 88.2148 32.4664Z" fill="black"/>
</svg>
