<svg width="102" height="101" viewBox="0 0 102 101" fill="none" xmlns="http://www.w3.org/2000/svg">
<path d="M95.7253 56.9543C95.5463 57.9124 95.1786 58.7084 94.6221 59.3424C94.0767 59.9784 93.3777 60.4185 92.525 60.6628C91.6834 60.9091 90.7391 60.9345 89.6918 60.7389L88.5221 60.5204C87.4748 60.3248 86.5977 59.9592 85.8907 59.4236C85.1948 58.8901 84.7018 58.2274 84.4116 57.4353C84.1326 56.6453 84.0826 55.7712 84.2615 54.8131L85.0044 50.8359L96.4681 52.9771L95.7253 56.9543ZM94.675 54.337L86.1858 52.7514L85.7488 55.0909C85.5636 56.0824 85.7274 56.9028 86.2403 57.552C86.7622 58.2144 87.6248 58.658 88.828 58.8827L89.9977 59.1012C91.1786 59.3218 92.131 59.223 92.8547 58.8047C93.5875 58.3997 94.0486 57.6903 94.238 56.6765L94.675 54.337Z" fill="black"/>
<path d="M90.1478 73.4263C89.6336 74.241 89.0057 74.8431 88.2639 75.2327C87.5222 75.6223 86.71 75.7731 85.8274 75.6851C84.9484 75.6128 84.0536 75.2893 83.1431 74.7146L81.8492 73.898C80.9387 73.3234 80.2569 72.6519 79.8038 71.8834C79.3542 71.1306 79.1456 70.3356 79.1781 69.4984C79.2106 68.6612 79.484 67.8353 79.9981 67.0206C80.5123 66.206 81.1402 65.6039 81.8819 65.2143C82.6237 64.8247 83.4341 64.6661 84.3131 64.7384C85.1957 64.8264 86.0923 65.1577 87.0028 65.7323L88.2967 66.5489C89.2072 67.1235 89.8872 67.7873 90.3368 68.5401C90.7899 69.3085 91.0003 70.1114 90.9677 70.9485C90.9352 71.7857 90.6619 72.6117 90.1478 73.4263ZM88.8683 72.6188C89.4006 71.7754 89.5466 70.9495 89.3062 70.1412C89.0659 69.3328 88.433 68.605 87.4075 67.9578L86.1136 67.1412C85.0881 66.494 84.1649 66.2262 83.3438 66.338C82.5168 66.4593 81.828 66.956 81.2776 67.8282C80.7453 68.6716 80.5945 69.4944 80.8253 70.2967C81.0656 71.1051 81.7033 71.8359 82.7384 72.4892L84.0323 73.3058C85.0578 73.953 85.984 74.2159 86.8111 74.0946C87.6321 73.9829 88.3178 73.491 88.8683 72.6188Z" fill="black"/>
<path d="M75.3509 88.7826L68.4221 79.4021L69.557 78.5638L79.2083 82.0446L79.2392 82.0006L74.1789 75.1498L75.3959 74.2509L82.3248 83.6314L81.1488 84.5L71.5992 81.071L71.5683 81.1149L76.5679 87.8836L75.3509 88.7826Z" fill="black"/>
<path d="M63.2512 94.2281L55.7274 84.2206L57.463 83.7361L59.0937 85.9107L64.4644 84.4115L64.7167 81.7112L66.2722 81.277L65.0196 93.7345L63.2512 94.2281ZM63.6288 92.0401L63.727 92.0126L64.2981 86.0287L60.0573 87.2126L63.6288 92.0401Z" fill="black"/>
<path d="M44.4162 95.7327L44.5154 94.2229L48.1625 94.4625L48.8277 84.3353L50.4901 84.4445L49.8249 94.5717L53.4721 94.8112L53.3729 96.321L44.4162 95.7327Z" fill="black"/>
<path d="M30.4207 91.4905L31.2038 90.1772L36.5282 92.3825L37.8423 89.2099L33.0205 87.2128L33.5994 85.8149L38.4212 87.812L39.8329 84.4038L34.4142 82.1595L34.7733 80.6706L41.951 83.6435L37.4884 94.4179L30.4207 91.4905Z" fill="black"/>
<path d="M13.9771 72.0329C13.7582 71.636 13.6598 71.2113 13.6821 70.7589C13.689 70.3021 13.8086 69.8737 14.041 69.4737C14.2733 69.0738 14.5929 68.7615 14.9998 68.5371C15.4265 68.3017 15.871 68.1924 16.3333 68.2092C16.7956 68.226 17.2218 68.3533 17.6118 68.5912C17.9964 68.8191 18.2982 69.1315 18.5172 69.5285C18.7361 69.9254 18.8372 70.355 18.8204 70.8173C18.7982 71.2697 18.6681 71.6909 18.4303 72.081C18.1924 72.471 17.8701 72.7783 17.4632 73.0027C17.0464 73.2326 16.6146 73.3414 16.1677 73.3291C15.7054 73.3123 15.2819 73.1899 14.8974 72.962C14.5028 72.7395 14.1961 72.4298 13.9771 72.0329Z" fill="black"/>
<path d="M5.36576 43.1297C5.55933 42.1744 5.93919 41.3841 6.50533 40.7588C7.06037 40.1312 7.76604 39.7017 8.62235 39.4705C9.46755 39.2371 10.4122 39.2261 11.4563 39.4377L12.6226 39.6741C13.6667 39.8856 14.5382 40.2646 15.2369 40.8109C15.9245 41.355 16.4074 42.0252 16.6854 42.8217C16.9523 43.6158 16.989 44.4905 16.7954 45.4458L15.9919 49.4112L4.5622 47.0951L5.36576 43.1297ZM6.37594 45.7627L14.8399 47.4779L15.3126 45.1453C15.5129 44.1567 15.3616 43.334 14.8588 42.677C14.347 42.0067 13.4914 41.55 12.2917 41.3069L11.1254 41.0705C9.94804 40.8319 8.99431 40.9162 8.26424 41.3233C7.52532 41.7171 7.05345 42.4194 6.84862 43.4301L6.37594 45.7627Z" fill="black"/>
<path d="M11.1651 26.7693C11.6911 25.9623 12.3279 25.3695 13.0752 24.9908C13.8226 24.6122 14.6369 24.4733 15.5181 24.5742C16.396 24.6594 17.286 24.996 18.1879 25.584L19.4697 26.4194C20.3716 27.0074 21.0435 27.6889 21.4853 28.4639C21.9238 29.2232 22.1207 30.0212 22.0759 30.8578C22.0311 31.6944 21.7457 32.5163 21.2197 33.3233C20.6936 34.1303 20.0569 34.7231 19.3095 35.1018C18.5621 35.4804 17.7495 35.6272 16.8716 35.5419C15.9904 35.441 15.0988 35.0966 14.1968 34.5087L12.9151 33.6732C12.0131 33.0852 11.3429 32.4116 10.9044 31.6523C10.4626 30.8773 10.2641 30.0714 10.3088 29.2348C10.3536 28.3982 10.6391 27.5764 11.1651 26.7693ZM12.4326 27.5956C11.888 28.4311 11.7299 29.2547 11.9583 30.0665C12.1868 30.8783 12.8089 31.6153 13.8248 32.2775L15.1066 33.113C16.1225 33.7752 17.0417 34.0565 17.8643 33.9568C18.693 33.8476 19.389 33.3611 19.9522 32.4971C20.4968 31.6616 20.6596 30.841 20.4407 30.0354C20.2122 29.2236 19.5853 28.4835 18.5599 27.8151L17.2782 26.9796C16.2623 26.3174 15.34 26.0409 14.5112 26.1501C13.6886 26.2497 12.9958 26.7316 12.4326 27.5956Z" fill="black"/>
<path d="M26.0696 11.6953L32.8606 21.176L31.7135 21.9977L22.1142 18.3763L22.0826 18.4198L27.0423 25.3437L25.8123 26.2248L19.0212 16.7441L20.2098 15.8927L29.7083 19.4609L29.7398 19.4174L24.8395 12.5764L26.0696 11.6953Z" fill="black"/>
<path d="M38.2402 6.36847L45.6113 16.4891L43.8685 16.9472L42.271 14.7481L36.8782 16.1656L36.585 18.8618L35.023 19.2723L36.4646 6.83524L38.2402 6.36847ZM37.8295 8.55059L37.7308 8.57652L37.069 14.5511L41.3273 13.4317L37.8295 8.55059Z" fill="black"/>
<path d="M57.2896 5.11911L57.1614 6.62666L53.5195 6.31691L52.6594 16.4294L50.9994 16.2882L51.8595 6.17572L48.2177 5.86597L48.3459 4.35841L57.2896 5.11911Z" fill="black"/>
<path d="M71.2138 9.57939L70.4063 10.8778L65.124 8.57355L63.751 11.7211L68.5347 13.8079L67.9297 15.1947L63.146 13.1079L61.671 16.4892L67.0468 18.8342L66.66 20.3162L59.539 17.2098L64.202 6.52062L71.2138 9.57939Z" fill="black"/>
<path d="M87.3826 29.3363C87.5942 29.7373 87.6847 30.1637 87.6541 30.6155C87.6388 31.0721 87.5112 31.4983 87.2715 31.8939C87.0318 32.2895 86.7065 32.5958 86.2955 32.8127C85.8645 33.0401 85.4181 33.1412 84.9562 33.1158C84.4943 33.0905 84.0706 32.9553 83.6849 32.7103C83.3046 32.4753 83.0087 32.1574 82.7971 31.7565C82.5855 31.3555 82.4923 30.9241 82.5177 30.4622C82.5483 30.0104 82.6861 29.5916 82.9311 29.206C83.1761 28.8204 83.5041 28.5192 83.9151 28.3023C84.336 28.0801 84.7698 27.9793 85.2164 27.9999C85.6783 28.0253 86.0994 28.1554 86.4797 28.3904C86.87 28.6201 87.171 28.9354 87.3826 29.3363Z" fill="black"/>
</svg>
