<svg width="105" height="105" viewBox="0 0 105 105" fill="none" xmlns="http://www.w3.org/2000/svg">
<path d="M97.7579 54.9232L95.9337 54.4363L92.4346 67.5453L94.2587 68.0322L97.7579 54.9232ZM88.5415 51.9166L86.6864 51.4214L82.9273 65.5044L84.7824 65.9995L88.5415 51.9166ZM98.99 61.1641L95.2645 60.1696L94.7446 62.1174L98.4701 63.1119L98.99 61.1641ZM92.987 63.3043C90.794 62.338 87.9972 60.7801 86.3052 59.5501L85.4205 61.2515C87.0507 62.4649 89.6568 64.0548 92.0466 65.3386L92.987 63.3043ZM94.3502 56.1499C92.2868 56.3112 89.634 56.1992 87.9974 55.8783L88 57.9159C89.6799 58.1987 92.2286 58.2663 94.3436 58.0359L94.3502 56.1499Z" fill="white"/>
<path d="M85.1242 84.0815L78.7433 77.7005L77.4535 78.9903L83.8345 85.3712L85.1242 84.0815ZM83.7326 87.4416L74.9532 78.6622C74.7609 78.4699 74.7722 78.3454 74.9645 78.1531C75.1682 77.9494 75.7904 77.3045 76.4579 76.7049C75.8809 76.49 75.0776 76.0714 74.6477 75.7546C73.6974 76.7049 73.0638 77.4064 72.8715 78.0739C72.6565 78.7188 72.8828 79.2392 73.6295 79.9859L82.4089 88.7653L83.7326 87.4416ZM91.3354 77.7345L90.1249 76.5239L84.287 82.3618L85.4976 83.5723L91.3354 77.7345ZM90.2946 81.2417L88.3486 79.2958L87.0249 80.6195L88.9709 82.5654L90.2946 81.2417ZM88.4391 74.6119C87.1381 74.8495 85.3505 75.0757 84.3775 74.9852L84.5698 76.8294C85.5768 76.8407 87.3417 76.5465 88.5749 76.2637L88.4391 74.6119ZM81.3568 73.4353C79.9652 73.5371 78.0758 73.5936 77.0575 73.4353L76.9331 75.4378C77.9966 75.5509 79.8633 75.4038 81.1984 75.2681L81.3568 73.4353ZM88.4844 79.2958C88.145 78.187 87.8621 76.5692 87.7943 75.4152L86.3008 75.913C86.2895 77.033 86.4592 78.6056 86.6403 80.0085L88.4844 79.2958ZM85.441 79.8501C84.7396 77.429 84.9432 74.4195 85.7578 72.021C85.1695 72.0663 84.4001 72.021 83.9023 71.9079C83.1443 74.6345 83.0425 77.7458 83.7892 80.5742L85.441 79.8501ZM82.4655 78.1644C81.7414 75.3586 82.2166 72.0324 83.3819 69.2379C82.7597 69.2718 81.9338 69.1926 81.402 69.0455C80.3046 72.1342 79.9765 75.6075 80.7684 78.8206L82.4655 78.1644Z" fill="white"/>
<path d="M67.6859 96.1009L67.3351 94.7869L59.142 96.9739L59.4927 98.2879L67.6859 96.1009ZM66.9542 92.3052L66.6035 90.9912L57.8538 93.3267L58.2046 94.6407L66.9542 92.3052ZM65.4687 86.4917L65.118 85.1777L56.2755 87.538L56.6263 88.8519L65.4687 86.4917ZM66.831 94.3253L66.4968 93.0732L58.8911 95.1033L59.2253 96.3555L66.831 94.3253ZM66.3186 97.741L64.8496 92.2377L63.2419 92.6669L64.7109 98.1702L66.3186 97.741ZM63.1186 98.5952L61.6497 93.0919L60.011 93.5293L61.48 99.0326L63.1186 98.5952ZM63.2533 92.6473L61.7719 87.0976L60.1642 87.5267L61.6455 93.0764L63.2533 92.6473ZM60.0818 92.1193L58.4767 86.1058C58.4272 85.9203 58.4766 85.8575 58.6734 85.7884C58.859 85.7388 59.5237 85.5614 60.1348 85.4314C59.8224 85.0677 59.4523 84.4875 59.2595 84.0753C58.2547 84.3435 57.5281 84.5374 57.0685 84.9251C56.6244 85.3086 56.5812 85.7672 56.7875 86.5402L58.3968 92.5691L60.0818 92.1193ZM65.6933 90.6214L63.6261 82.8766L61.9874 83.314L63.704 89.7448L59.02 90.9951L59.3707 92.3091L65.6933 90.6214ZM64.3376 88.8305L64.0323 87.6866L58.5289 89.1555L58.8343 90.2995L64.3376 88.8305ZM69.6776 85.3848C69.6784 84.2088 69.9841 82.9349 70.5013 82.0185C70.0571 81.9052 69.2572 81.6385 68.8666 81.4778C68.3628 82.5065 68.0066 84.0258 67.9513 85.4316L69.6776 85.3848ZM67.7049 85.3152C66.9915 84.6279 66.1421 83.6789 65.7245 83.0451L64.4838 84.1049C64.9127 84.7191 65.7653 85.6176 66.5014 86.2657L67.7049 85.3152ZM70.4026 91.451L68.8722 91.8595L68.4884 90.4219L70.0188 90.0134L70.4026 91.451ZM69.6557 88.653L68.1253 89.0615L67.7333 87.5929L69.2637 87.1844L69.6557 88.653ZM71.1495 94.2491L69.619 94.6576L69.2394 93.2354L70.7698 92.8268L71.1495 94.2491ZM73.1224 95.3122L70.4485 85.2949L65.7181 86.5576L68.392 96.5749L73.1224 95.3122Z" fill="white"/>
<path d="M39.9349 96.1165L37.9911 95.5818L38.2797 94.5328L40.2235 95.0675L39.9349 96.1165ZM43.3597 97.0586L41.4776 96.5409L41.7662 95.4918L43.6483 96.0095L43.3597 97.0586ZM46.7537 97.9921L44.9024 97.4829L45.191 96.4339L47.0422 96.9431L46.7537 97.9921ZM48.0884 99.8362L49.1365 96.0257L36.8721 92.6521L35.8239 96.4626L48.0884 99.8362ZM47.4425 91.6269L40.6546 89.7597L40.8583 89.0192L47.6462 90.8864L47.4425 91.6269ZM47.9517 89.7756L41.1639 87.9085L41.3718 87.1526L48.1597 89.0197L47.9517 89.7756ZM46.9333 93.4781L40.1454 91.611L40.3533 90.8551L47.1412 92.7222L46.9333 93.4781ZM48.462 95.1598L50.3334 88.3565L39.7505 85.4454L37.8791 92.2487L48.462 95.1598ZM44.4492 85.8584C42.9204 84.8405 41.4117 83.629 40.5911 82.8722L38.3155 83.2419C39.3591 84.0932 41.1455 85.3811 42.7248 86.3963L44.4492 85.8584ZM47.6067 87.7724C48.8521 87.4678 50.8715 87.4259 52.6337 87.5953C52.3063 87.1567 51.8408 86.3152 51.6341 85.86C49.9109 85.8507 47.6469 86.0576 46.1219 86.5342L47.6067 87.7724Z" fill="white"/>
<path d="M23.9724 80.8842C23.3469 81.3863 22.749 81.619 22.1787 81.5825C21.6044 81.5492 21.0907 81.2503 20.6375 80.6857C20.1909 80.1292 20.0119 79.565 20.1005 78.993C20.1891 78.421 20.5441 77.8857 21.1656 77.3869C21.783 76.8914 22.3841 76.6627 22.969 76.7008C23.5507 76.7349 24.0632 77.0281 24.5065 77.5805C24.9564 78.1411 25.135 78.709 25.0424 79.2842C24.9465 79.8554 24.5898 80.3887 23.9724 80.8842Z" fill="white"/>
<path d="M6.39039 53.4519L8.24889 53.7844L10.6379 40.4283L8.7794 40.0959L6.39039 53.4519ZM15.8262 55.6761L17.7162 56.0142L20.2827 41.6659L18.3927 41.3278L15.8262 55.6761ZM4.63988 47.3362L8.43564 48.0151L8.79061 46.0306L4.99486 45.3517L4.63988 47.3362ZM10.4426 44.7007C12.7088 45.4799 15.6263 46.7982 17.4153 47.8822L18.1545 46.1127C16.4284 45.04 13.6982 43.6739 11.2094 42.5948L10.4426 44.7007ZM9.68331 51.9442C11.726 51.6106 14.3789 51.5 16.0366 51.6828L15.8634 49.6525C14.1657 49.5114 11.6202 49.6575 9.53198 50.0642L9.68331 51.9442Z" fill="white"/>
<path d="M16.4575 23.4347L23.349 29.2604L24.5266 27.8675L17.6351 22.0417L16.4575 23.4347ZM17.5636 19.97L27.0456 27.9856C27.2533 28.1612 27.2524 28.2862 27.0768 28.4939C26.8909 28.7138 26.3247 29.4084 25.7096 30.0617C26.3025 30.2277 27.1379 30.5778 27.5928 30.8576C28.4605 29.8312 29.0332 29.0793 29.1692 28.398C29.3295 27.7375 29.0606 27.2377 28.2541 26.556L18.7722 18.5404L17.5636 19.97ZM10.798 30.2782L12.1055 31.3834L17.4354 25.0784L16.128 23.9732L10.798 30.2782ZM11.5424 26.6963L13.644 28.4729L14.8526 27.0433L12.7509 25.2666L11.5424 26.6963ZM13.945 33.148C15.2217 32.8026 16.9841 32.4278 17.9612 32.4368L17.6156 30.6151C16.6112 30.6879 14.877 31.1285 13.6717 31.5133L13.945 33.148ZM21.1009 33.7291C22.4791 33.5114 24.3572 33.2972 25.3851 33.37L25.3419 31.3641C24.2726 31.3402 22.4247 31.6426 21.1057 31.8894L21.1009 33.7291ZM13.5087 28.4842C13.9396 29.5608 14.3565 31.1494 14.5205 32.2937L15.9671 31.6729C15.8849 30.5558 15.5844 29.0029 15.2869 27.62L13.5087 28.4842ZM16.4952 27.6777C17.3964 30.0318 17.4448 33.0477 16.8333 35.5059C17.4158 35.4116 18.1862 35.3925 18.6917 35.4636C19.2194 32.6833 19.0611 29.5744 18.0808 26.8182L16.4952 27.6777ZM19.6011 29.109C20.5569 31.8446 20.3612 35.1989 19.4333 38.0809C20.0506 37.9951 20.8802 38.0051 21.4224 38.1072C22.258 34.9377 22.2949 31.4491 21.2374 28.3134L19.6011 29.109Z" fill="white"/>
<path d="M32.8057 9.94017L33.2643 11.2205L41.2476 8.36105L40.789 7.0807L32.8057 9.94017ZM33.8498 13.6621L34.3084 14.9424L42.834 11.8887L42.3754 10.6084L33.8498 13.6621ZM35.8128 19.3322L36.2714 20.6126L44.8874 17.5265L44.4288 16.2462L35.8128 19.3322ZM33.8049 11.6387L34.2419 12.8588L41.6529 10.2043L41.2159 8.98424L33.8049 11.6387ZM34.0321 8.19225L35.9528 13.5546L37.5193 12.9935L35.5986 7.63114L34.0321 8.19225ZM37.1501 7.07543L39.0708 12.4378L40.6675 11.8659L38.7468 6.50354L37.1501 7.07543ZM37.5097 13.014L39.4465 18.4216L41.0131 17.8605L39.0762 12.4529L37.5097 13.014ZM40.714 13.2769L42.8127 19.1364C42.8775 19.3171 42.8334 19.3839 42.643 19.4691C42.4622 19.5338 41.8145 19.7658 41.2163 19.9461C41.5578 20.2827 41.9748 20.8301 42.2012 21.2249C43.1803 20.8742 43.8882 20.6206 44.314 20.1962C44.7248 19.7772 44.7297 19.3165 44.46 18.5634L42.3558 12.6888L40.714 13.2769ZM35.2461 15.2354L37.9491 22.7819L39.5458 22.21L37.3014 15.9438L41.8655 14.3091L41.4069 13.0287L35.2461 15.2354ZM36.7459 16.9076L37.1451 18.0223L42.5075 16.1016L42.1083 14.9869L36.7459 16.9076ZM31.7103 20.7847C31.8072 21.9566 31.6082 23.2516 31.1688 24.2077C31.6209 24.2837 32.4402 24.4832 32.8428 24.6109C33.2594 23.5439 33.4883 22.0003 33.4268 20.5947L31.7103 20.7847ZM33.6819 20.6903C34.4499 21.316 35.3752 22.1912 35.844 22.7881L36.9924 21.629C36.514 21.0526 35.5898 20.2279 34.8025 19.6431L33.6819 20.6903ZM30.4843 14.7995L31.9755 14.2654L32.4773 15.6663L30.986 16.2004L30.4843 14.7995ZM31.4608 17.5259L32.9521 16.9918L33.4646 18.4228L31.9734 18.9569L31.4608 17.5259ZM29.5078 12.0732L30.999 11.539L31.4953 12.9248L30.0041 13.4589L29.5078 12.0732ZM27.4534 11.1774L30.9495 20.9382L35.5588 19.2873L32.0626 9.52649L27.4534 11.1774Z" fill="white"/>
<path d="M60.5084 7.56373L62.4901 7.93387L62.2904 9.00338L60.3086 8.63323L60.5084 7.56373ZM57.0168 6.91157L58.9356 7.26996L58.7358 8.33947L56.817 7.98108L57.0168 6.91157ZM53.5566 6.26529L55.444 6.61781L55.2442 7.68731L53.3569 7.3348L53.5566 6.26529ZM52.0723 4.53942L51.3467 8.42424L63.8504 10.7597L64.576 6.87484L52.0723 4.53942ZM53.4028 12.6659L60.3232 13.9584L60.1822 14.7134L53.2618 13.4208L53.4028 12.6659ZM53.0503 14.5532L59.9707 15.8458L59.8267 16.6165L52.9064 15.3239L53.0503 14.5532ZM53.7554 10.7785L60.6757 12.0711L60.5317 12.8417L53.6114 11.5492L53.7554 10.7785ZM52.0913 9.23066L50.7958 16.1667L61.5852 18.1819L62.8807 11.2459L52.0913 9.23066ZM56.8684 18.1636C58.477 19.05 60.0818 20.131 60.9629 20.8165L63.1995 20.2576C62.0883 19.4967 60.2004 18.3628 58.5417 17.4833L56.8684 18.1636ZM53.5618 16.5206C52.3463 16.9283 50.3374 17.1391 48.5673 17.1177C48.9302 17.5273 49.4645 18.327 49.7086 18.7632C51.4265 18.6284 53.6652 18.2327 55.145 17.6301L53.5618 16.5206Z" fill="white"/>
<path d="M77.7234 21.3966C78.3048 20.844 78.8812 20.5621 79.4525 20.5509C80.0276 20.536 80.5645 20.791 81.0632 21.3158C81.5548 21.833 81.7803 22.3803 81.7398 22.9576C81.6994 23.535 81.3903 24.0982 80.8127 24.6471C80.2388 25.1925 79.6589 25.4706 79.0729 25.4815C78.4904 25.4962 77.9552 25.2468 77.4672 24.7333C76.9721 24.2123 76.7466 23.6614 76.7909 23.0804C76.8387 22.5032 77.1496 21.942 77.7234 21.3966Z" fill="white"/>
</svg>
