<svg width="63" height="63" viewBox="0 0 63 63" fill="none" xmlns="http://www.w3.org/2000/svg">
<path d="M35.46 27.4256C33.3289 25.2953 30.439 24.0986 27.4257 24.0986C24.4125 24.0986 21.5226 25.2953 19.3915 27.4256L11.3546 35.4599C9.2234 37.591 8.02612 40.4815 8.02612 43.4954C8.02612 46.5094 9.2234 49.3999 11.3546 51.531C13.4857 53.6622 16.3762 54.8595 19.3902 54.8595C22.4041 54.8595 25.2946 53.6622 27.4257 51.531L31.4429 47.5139" stroke="white" stroke-width="5.20355" stroke-linecap="round" stroke-linejoin="round"/>
<path d="M27.4255 35.4598C29.5567 37.59 32.4466 38.7867 35.4598 38.7867C38.4731 38.7867 41.363 37.59 43.4941 35.4598L51.531 27.4255C53.6622 25.2943 54.8595 22.4038 54.8595 19.3899C54.8595 16.376 53.6622 13.4855 51.531 11.3543C49.3998 9.22316 46.5093 8.02588 43.4954 8.02588C40.4815 8.02588 37.591 9.22316 35.4598 11.3543L31.4427 15.3715" stroke="white" stroke-width="5.20355" stroke-linecap="round" stroke-linejoin="round"/>
</svg>
