<svg width="28" height="29" viewBox="0 0 28 29" fill="none" xmlns="http://www.w3.org/2000/svg">
<path d="M14.0874 6.30412C13.2754 6.30412 12.4967 5.9721 11.9226 5.38111C11.3484 4.79012 11.0259 3.98857 11.0259 3.15278C11.0259 2.317 11.3484 1.51544 11.9226 0.924454C12.4967 0.333464 13.2754 0.00144958 14.0874 0.00144958C14.8993 0.00144958 15.678 0.333464 16.2521 0.924454C16.8263 1.51544 17.1488 2.317 17.1488 3.15278C17.1488 3.98857 16.8263 4.79012 16.2521 5.38111C15.678 5.9721 14.8993 6.30412 14.0874 6.30412ZM24.1933 6.30412C23.3813 6.30412 22.6026 5.9721 22.0285 5.38111C21.4544 4.79012 21.1318 3.98857 21.1318 3.15278C21.1318 2.317 21.4544 1.51544 22.0285 0.924454C22.6026 0.333464 23.3813 0.00144958 24.1933 0.00144958C25.0052 0.00144958 25.784 0.333464 26.3581 0.924454C26.9322 1.51544 27.2548 2.317 27.2548 3.15278C27.2548 3.98857 26.9322 4.79012 26.3581 5.38111C25.784 5.9721 25.0052 6.30412 24.1933 6.30412ZM3.06344 6.30412C2.25148 6.30412 1.47278 5.9721 0.89864 5.38111C0.324501 4.79012 0.00195322 3.98857 0.00195322 3.15278C0.00195322 2.317 0.324501 1.51544 0.89864 0.924454C1.47278 0.333464 2.25148 0.00144958 3.06344 0.00144958C3.87539 0.00144958 4.65409 0.333464 5.22823 0.924454C5.80237 1.51544 6.12492 2.317 6.12492 3.15278C6.12492 3.98857 5.80237 4.79012 5.22823 5.38111C4.65409 5.9721 3.87539 6.30412 3.06344 6.30412ZM14.0874 17.6516C13.6853 17.6516 13.2872 17.5701 12.9158 17.4117C12.5443 17.2533 12.2068 17.0212 11.9226 16.7286C11.6383 16.4359 11.4128 16.0885 11.2589 15.7062C11.1051 15.3239 11.0259 14.9141 11.0259 14.5002C11.0259 14.0864 11.1051 13.6766 11.2589 13.2943C11.4128 12.9119 11.6383 12.5645 11.9226 12.2719C12.2068 11.9793 12.5443 11.7472 12.9158 11.5888C13.2872 11.4304 13.6853 11.3489 14.0874 11.3489C14.8993 11.3489 15.678 11.6809 16.2521 12.2719C16.8263 12.8629 17.1488 13.6645 17.1488 14.5002C17.1488 15.336 16.8263 16.1376 16.2521 16.7286C15.678 17.3196 14.8993 17.6516 14.0874 17.6516ZM24.1933 17.6516C23.7913 17.6516 23.3932 17.5701 23.0217 17.4117C22.6503 17.2533 22.3128 17.0212 22.0285 16.7286C21.7442 16.4359 21.5187 16.0885 21.3649 15.7062C21.211 15.3239 21.1318 14.9141 21.1318 14.5002C21.1318 14.0864 21.211 13.6766 21.3649 13.2943C21.5187 12.9119 21.7442 12.5645 22.0285 12.2719C22.3128 11.9793 22.6503 11.7472 23.0217 11.5888C23.3932 11.4304 23.7913 11.3489 24.1933 11.3489C25.0052 11.3489 25.784 11.6809 26.3581 12.2719C26.9322 12.8629 27.2548 13.6645 27.2548 14.5002C27.2548 15.336 26.9322 16.1376 26.3581 16.7286C25.784 17.3196 25.0052 17.6516 24.1933 17.6516ZM3.06344 17.6516C2.6614 17.6516 2.26329 17.5701 1.89186 17.4117C1.52042 17.2533 1.18293 17.0212 0.89864 16.7286C0.614356 16.4359 0.388848 16.0885 0.234995 15.7062C0.0811407 15.3239 0.00195315 14.9141 0.00195315 14.5002C0.00195315 14.0864 0.0811407 13.6766 0.234995 13.2943C0.388848 12.9119 0.614356 12.5645 0.89864 12.2719C1.18293 11.9793 1.52042 11.7472 1.89186 11.5888C2.26329 11.4304 2.6614 11.3489 3.06344 11.3489C3.87539 11.3489 4.65409 11.6809 5.22823 12.2719C5.80237 12.8629 6.12492 13.6645 6.12492 14.5002C6.12492 15.336 5.80237 16.1376 5.22823 16.7286C4.65409 17.3196 3.87539 17.6516 3.06344 17.6516ZM14.0874 28.999C13.6853 28.999 13.2872 28.9175 12.9158 28.7592C12.5443 28.6008 12.2068 28.3687 11.9226 28.076C11.6383 27.7834 11.4128 27.436 11.2589 27.0537C11.1051 26.6713 11.0259 26.2615 11.0259 25.8477C11.0259 25.4339 11.1051 25.0241 11.2589 24.6417C11.4128 24.2594 11.6383 23.912 11.9226 23.6194C12.2068 23.3267 12.5443 23.0946 12.9158 22.9362C13.2872 22.7779 13.6853 22.6964 14.0874 22.6964C14.8995 22.6964 15.6783 23.0284 16.2526 23.6195C16.8268 24.2107 17.1494 25.0124 17.1494 25.8483C17.1494 26.6843 16.8268 27.486 16.2526 28.0771C15.6783 28.6682 14.8995 29.0002 14.0874 29.0002V28.999ZM24.1933 28.999C23.7913 28.999 23.3932 28.9175 23.0217 28.7592C22.6503 28.6008 22.3128 28.3687 22.0285 28.076C21.7442 27.7834 21.5187 27.436 21.3649 27.0537C21.211 26.6713 21.1318 26.2615 21.1318 25.8477C21.1318 25.4339 21.211 25.0241 21.3649 24.6417C21.5187 24.2594 21.7442 23.912 22.0285 23.6194C22.3128 23.3267 22.6503 23.0946 23.0217 22.9362C23.3932 22.7779 23.7913 22.6964 24.1933 22.6964C25.0052 22.6964 25.784 23.0284 26.3581 23.6194C26.9322 24.2104 27.2548 25.0119 27.2548 25.8477C27.2548 26.6835 26.9322 27.485 26.3581 28.076C25.784 28.667 25.0052 28.999 24.1933 28.999ZM3.06344 28.999C2.6614 28.999 2.26329 28.9175 1.89186 28.7592C1.52042 28.6008 1.18293 28.3687 0.89864 28.076C0.614356 27.7834 0.388848 27.436 0.234995 27.0537C0.0811407 26.6713 0.00195313 26.2615 0.00195312 25.8477C0.00195313 25.4339 0.0811407 25.0241 0.234995 24.6417C0.388848 24.2594 0.614356 23.912 0.89864 23.6194C1.18293 23.3267 1.52042 23.0946 1.89186 22.9362C2.26329 22.7779 2.6614 22.6964 3.06344 22.6964C3.87539 22.6964 4.65409 23.0284 5.22823 23.6194C5.80237 24.2104 6.12492 25.0119 6.12492 25.8477C6.12492 26.6835 5.80237 27.485 5.22823 28.076C4.65409 28.667 3.87539 28.999 3.06344 28.999Z" fill="black"/>
</svg>
