<svg width="41" height="42" viewBox="0 0 41 42" fill="none" xmlns="http://www.w3.org/2000/svg">
<path d="M13.632 6.60031C13.4572 6.49495 13.3045 6.35505 13.1827 6.18871C13.0609 6.02237 12.9724 5.83287 12.9224 5.63119C12.8723 5.4295 12.8616 5.21962 12.891 5.01367C12.9204 4.80773 12.9892 4.60981 13.0935 4.43135C13.1978 4.2529 13.3355 4.09744 13.4986 3.97398C13.6618 3.85052 13.8471 3.7615 14.044 3.71206C14.2408 3.66263 14.4453 3.65375 14.6455 3.68596C14.8457 3.71817 15.0377 3.79082 15.2104 3.89971C17.9643 5.59651 19.9945 7.64821 21.3029 10.4832C22.591 13.2762 23.1103 16.6887 23.1103 21V32.424L28.6713 26.712C28.8117 26.5573 28.981 26.4332 29.169 26.3471C29.3571 26.261 29.5602 26.2147 29.7661 26.211C29.972 26.2072 30.1765 26.2461 30.3674 26.3254C30.5583 26.4046 30.7318 26.5225 30.8774 26.672C31.023 26.8216 31.1378 26.9997 31.2149 27.1959C31.292 27.392 31.3299 27.602 31.3263 27.8135C31.3226 28.025 31.2776 28.2335 31.1937 28.4267C31.1099 28.6199 30.9891 28.7938 30.8385 28.938L22.6605 37.338C22.373 37.633 21.9832 37.7986 21.5769 37.7986C21.1706 37.7986 20.7808 37.633 20.4933 37.338L12.3153 28.938C12.0445 28.6394 11.897 28.2445 11.904 27.8365C11.9111 27.4285 12.072 27.0392 12.3529 26.7506C12.6339 26.462 13.0129 26.2967 13.4101 26.2895C13.8074 26.2823 14.1918 26.4338 14.4825 26.712L20.0435 32.424V21C20.0435 16.9113 19.5426 14.0259 18.5306 11.8314C17.537 9.67681 15.9893 8.05351 13.632 6.60241V6.60031Z" fill="black"/>
</svg>
